<svg width="837" height="99" viewBox="0 0 837 99" fill="none" xmlns="http://www.w3.org/2000/svg">
<rect width="390" height="99" rx="49.5" fill="#F9F8F8"/>
<circle cx="51.5" cy="49.5" r="34.5" fill="#7EB693"/>
<path d="M50.1836 47.5508V50.627C50.1836 51.9616 50.0412 53.1131 49.7563 54.0815C49.4715 55.0418 49.0605 55.8312 48.5234 56.4497C47.9945 57.0601 47.3638 57.5117 46.6313 57.8047C45.8989 58.0977 45.0851 58.2441 44.1899 58.2441C43.4738 58.2441 42.8065 58.1546 42.188 57.9756C41.5695 57.7884 41.012 57.4995 40.5156 57.1089C40.0273 56.7183 39.6042 56.2259 39.2461 55.6318C38.8962 55.0296 38.6276 54.3135 38.4404 53.4834C38.2533 52.6533 38.1597 51.7012 38.1597 50.627V47.5508C38.1597 46.2161 38.3021 45.0728 38.5869 44.1206C38.8799 43.1603 39.2909 42.375 39.8198 41.7646C40.3569 41.1543 40.9917 40.7067 41.7241 40.4219C42.4565 40.1289 43.2703 39.9824 44.1655 39.9824C44.8817 39.9824 45.5449 40.076 46.1553 40.2632C46.7738 40.4422 47.3312 40.723 47.8276 41.1055C48.3241 41.488 48.7472 41.9803 49.0972 42.5825C49.4471 43.1766 49.7157 43.8887 49.9028 44.7188C50.09 45.5407 50.1836 46.4847 50.1836 47.5508ZM46.6558 51.0908V47.0747C46.6558 46.4318 46.6191 45.8703 46.5459 45.3901C46.4808 44.91 46.3791 44.5031 46.2407 44.1694C46.1024 43.8276 45.9315 43.5509 45.728 43.3394C45.5246 43.1278 45.2926 42.9731 45.0322 42.8755C44.7718 42.7778 44.4829 42.729 44.1655 42.729C43.7668 42.729 43.4128 42.8063 43.1035 42.9609C42.8024 43.1156 42.5461 43.3638 42.3345 43.7056C42.1229 44.0392 41.9601 44.4868 41.8462 45.0483C41.7404 45.6017 41.6875 46.2772 41.6875 47.0747V51.0908C41.6875 51.7337 41.7201 52.2993 41.7852 52.7876C41.8584 53.2759 41.9642 53.695 42.1025 54.0449C42.249 54.3867 42.4199 54.6675 42.6152 54.8872C42.8187 55.0988 43.0506 55.2534 43.311 55.3511C43.5796 55.4487 43.8726 55.4976 44.1899 55.4976C44.5806 55.4976 44.9264 55.4202 45.2275 55.2656C45.5368 55.1029 45.7972 54.8506 46.0088 54.5088C46.2285 54.1589 46.3913 53.7031 46.4971 53.1416C46.6029 52.5801 46.6558 51.8965 46.6558 51.0908ZM61.1455 40.1899V58H57.6299V44.2427L53.4062 45.5854V42.8145L60.7671 40.1899H61.1455Z" fill="white"/>
<path d="M119.508 50.0776H114.967L114.943 47.7095H118.837C119.504 47.7095 120.062 47.6159 120.509 47.4287C120.957 47.2415 121.295 46.9689 121.522 46.6108C121.758 46.2528 121.876 45.8174 121.876 45.3047C121.876 44.735 121.767 44.2712 121.547 43.9131C121.335 43.555 121.002 43.2946 120.546 43.1318C120.09 42.9609 119.512 42.8755 118.812 42.8755H116.054V58H112.697V40.2266H118.812C119.822 40.2266 120.721 40.3242 121.51 40.5195C122.308 40.7067 122.983 40.9997 123.537 41.3984C124.09 41.7972 124.509 42.2977 124.794 42.8999C125.087 43.5021 125.233 44.2183 125.233 45.0483C125.233 45.7808 125.062 46.4562 124.721 47.0747C124.387 47.6851 123.87 48.1815 123.17 48.564C122.479 48.9465 121.6 49.1662 120.534 49.2231L119.508 50.0776ZM119.362 58H113.979L115.382 55.3633H119.362C120.029 55.3633 120.578 55.2534 121.01 55.0337C121.449 54.814 121.775 54.5129 121.986 54.1304C122.206 53.7397 122.316 53.2922 122.316 52.7876C122.316 52.2342 122.218 51.7541 122.023 51.3472C121.836 50.9403 121.535 50.627 121.12 50.4072C120.713 50.1875 120.176 50.0776 119.508 50.0776H116.017L116.042 47.7095H120.485L121.254 48.625C122.279 48.6331 123.113 48.8366 123.756 49.2354C124.407 49.6341 124.888 50.1468 125.197 50.7734C125.506 51.4001 125.661 52.0755 125.661 52.7998C125.661 53.9391 125.412 54.8953 124.916 55.6685C124.428 56.4416 123.712 57.0234 122.768 57.4141C121.832 57.8047 120.696 58 119.362 58ZM134.254 58.2441C133.253 58.2441 132.354 58.0814 131.557 57.7559C130.759 57.4303 130.08 56.9787 129.518 56.4009C128.965 55.8149 128.537 55.1354 128.236 54.3623C127.943 53.5811 127.797 52.7428 127.797 51.8477V51.3594C127.797 50.3421 127.943 49.4185 128.236 48.5884C128.529 47.7502 128.944 47.0299 129.481 46.4277C130.019 45.8255 130.661 45.3617 131.41 45.0361C132.159 44.7106 132.985 44.5479 133.888 44.5479C134.824 44.5479 135.65 44.7065 136.366 45.0239C137.082 45.3332 137.681 45.7726 138.161 46.3423C138.641 46.9119 139.003 47.5955 139.247 48.3931C139.491 49.1825 139.613 50.0573 139.613 51.0176V52.3726H129.262V50.1509H136.439V49.9067C136.423 49.394 136.326 48.9261 136.146 48.5029C135.967 48.0716 135.691 47.7298 135.316 47.4775C134.942 47.2171 134.458 47.0869 133.864 47.0869C133.384 47.0869 132.965 47.1927 132.606 47.4043C132.257 47.6077 131.964 47.9007 131.728 48.2832C131.5 48.6576 131.329 49.1051 131.215 49.626C131.101 50.1468 131.044 50.7246 131.044 51.3594V51.8477C131.044 52.401 131.117 52.9137 131.264 53.3857C131.418 53.8577 131.642 54.2687 131.935 54.6187C132.236 54.9604 132.594 55.229 133.009 55.4243C133.432 55.6115 133.913 55.7051 134.45 55.7051C135.125 55.7051 135.736 55.5749 136.281 55.3145C136.834 55.0459 137.314 54.6512 137.721 54.1304L139.345 55.8149C139.068 56.2218 138.694 56.6125 138.222 56.9868C137.758 57.3612 137.196 57.6663 136.537 57.9023C135.878 58.1302 135.117 58.2441 134.254 58.2441ZM149.037 54.3867C149.037 54.11 148.964 53.8618 148.817 53.6421C148.671 53.4224 148.394 53.223 147.987 53.0439C147.589 52.8568 147.003 52.6818 146.229 52.519C145.546 52.3726 144.915 52.1895 144.337 51.9697C143.76 51.75 143.263 51.4855 142.848 51.1763C142.433 50.8589 142.108 50.4886 141.872 50.0654C141.644 49.6341 141.53 49.1377 141.53 48.5762C141.53 48.0309 141.648 47.5182 141.884 47.0381C142.12 46.5498 142.462 46.1226 142.909 45.7563C143.357 45.382 143.902 45.089 144.545 44.8774C145.188 44.6577 145.912 44.5479 146.718 44.5479C147.841 44.5479 148.805 44.731 149.611 45.0972C150.425 45.4634 151.047 45.9679 151.479 46.6108C151.91 47.2456 152.125 47.9618 152.125 48.7593H148.903C148.903 48.4093 148.821 48.092 148.659 47.8071C148.504 47.5223 148.264 47.2944 147.938 47.1235C147.613 46.9445 147.202 46.855 146.706 46.855C146.258 46.855 145.88 46.9282 145.57 47.0747C145.269 47.2212 145.041 47.4124 144.887 47.6484C144.732 47.8844 144.655 48.1449 144.655 48.4297C144.655 48.6413 144.695 48.8325 144.777 49.0034C144.866 49.1662 145.009 49.3167 145.204 49.4551C145.399 49.5934 145.664 49.7196 145.998 49.8335C146.339 49.9474 146.758 50.0573 147.255 50.1631C148.24 50.3584 149.098 50.6188 149.831 50.9443C150.571 51.2617 151.149 51.6849 151.564 52.2139C151.979 52.7428 152.187 53.4183 152.187 54.2402C152.187 54.8262 152.06 55.3633 151.808 55.8516C151.556 56.3317 151.19 56.7508 150.709 57.1089C150.229 57.467 149.656 57.7477 148.988 57.9512C148.321 58.1465 147.568 58.2441 146.73 58.2441C145.517 58.2441 144.492 58.0285 143.654 57.5972C142.816 57.1577 142.181 56.6043 141.75 55.937C141.318 55.2616 141.103 54.5617 141.103 53.8374H144.191C144.215 54.3501 144.354 54.7611 144.606 55.0703C144.858 55.3796 145.176 55.6034 145.558 55.7417C145.949 55.8719 146.36 55.937 146.791 55.937C147.279 55.937 147.69 55.8719 148.024 55.7417C148.358 55.6034 148.61 55.4202 148.781 55.1924C148.952 54.9564 149.037 54.6878 149.037 54.3867ZM160.89 44.792V47.1113H153.322V44.792H160.89ZM155.348 41.5449H158.583V54.1914C158.583 54.582 158.636 54.8831 158.742 55.0947C158.847 55.3063 159.006 55.4487 159.218 55.522C159.429 55.5952 159.682 55.6318 159.975 55.6318C160.186 55.6318 160.382 55.6196 160.561 55.5952C160.74 55.5708 160.89 55.5464 161.012 55.522L161.024 57.939C160.756 58.0285 160.451 58.1017 160.109 58.1587C159.775 58.2157 159.397 58.2441 158.974 58.2441C158.249 58.2441 157.615 58.1221 157.069 57.8779C156.524 57.6257 156.101 57.2228 155.8 56.6694C155.499 56.1079 155.348 55.3674 155.348 54.4478V41.5449ZM177.174 63.0781V47.4531L177.565 44.792H180.421V63.0781H177.174ZM168.703 51.5303V51.2739C168.703 50.2648 168.817 49.3493 169.044 48.5273C169.272 47.6973 169.606 46.9893 170.045 46.4033C170.493 45.8092 171.038 45.3535 171.681 45.0361C172.324 44.7106 173.061 44.5479 173.891 44.5479C174.704 44.5479 175.408 44.7065 176.002 45.0239C176.597 45.3413 177.101 45.793 177.516 46.3789C177.931 46.9567 178.261 47.6444 178.505 48.4419C178.757 49.2394 178.944 50.1224 179.066 51.0908V51.7866C178.944 52.7144 178.757 53.5729 178.505 54.3623C178.261 55.1436 177.931 55.8271 177.516 56.4131C177.109 56.9909 176.605 57.4425 176.002 57.7681C175.4 58.0854 174.688 58.2441 173.866 58.2441C173.044 58.2441 172.312 58.0773 171.669 57.7437C171.034 57.4019 170.493 56.9299 170.045 56.3276C169.606 55.7254 169.272 55.0174 169.044 54.2036C168.817 53.3817 168.703 52.4906 168.703 51.5303ZM171.938 51.2739V51.5303C171.938 52.1081 171.986 52.6493 172.084 53.1538C172.19 53.6502 172.353 54.0897 172.572 54.4722C172.792 54.8547 173.073 55.1558 173.415 55.3755C173.764 55.5952 174.188 55.7051 174.684 55.7051C175.351 55.7051 175.893 55.5586 176.308 55.2656C176.731 54.9727 177.048 54.578 177.26 54.0815C177.479 53.577 177.622 53.0155 177.687 52.397V50.4927C177.646 49.9963 177.561 49.5405 177.431 49.1255C177.3 48.7104 177.117 48.3524 176.881 48.0513C176.653 47.7502 176.361 47.5142 176.002 47.3433C175.644 47.1724 175.213 47.0869 174.708 47.0869C174.212 47.0869 173.789 47.1968 173.439 47.4165C173.089 47.6281 172.804 47.9251 172.584 48.3076C172.365 48.6901 172.202 49.1336 172.096 49.6382C171.99 50.1427 171.938 50.688 171.938 51.2739ZM191.261 54.8628V44.792H194.508V58H191.457L191.261 54.8628ZM191.676 52.1284L192.677 52.104C192.677 52.991 192.58 53.8089 192.384 54.5576C192.189 55.3063 191.884 55.9574 191.469 56.5107C191.062 57.056 190.545 57.4832 189.918 57.7925C189.292 58.0936 188.551 58.2441 187.697 58.2441C187.046 58.2441 186.452 58.1546 185.915 57.9756C185.377 57.7884 184.914 57.4995 184.523 57.1089C184.14 56.7101 183.843 56.2015 183.632 55.583C183.42 54.9564 183.314 54.2036 183.314 53.3247V44.792H186.537V53.3491C186.537 53.7886 186.586 54.1548 186.684 54.4478C186.789 54.7407 186.932 54.9808 187.111 55.168C187.298 55.347 187.514 55.4772 187.758 55.5586C188.01 55.6318 188.279 55.6685 188.563 55.6685C189.345 55.6685 189.959 55.5138 190.407 55.2046C190.862 54.8872 191.188 54.464 191.383 53.9351C191.579 53.3979 191.676 52.7957 191.676 52.1284ZM204.64 55.1924V49.1011C204.64 48.6535 204.563 48.2669 204.408 47.9414C204.254 47.6159 204.018 47.3636 203.7 47.1846C203.383 47.0055 202.98 46.916 202.492 46.916C202.06 46.916 201.682 46.9893 201.356 47.1357C201.039 47.2822 200.795 47.4897 200.624 47.7583C200.453 48.0187 200.368 48.3198 200.368 48.6616H197.133C197.133 48.1164 197.263 47.5996 197.523 47.1113C197.784 46.6149 198.154 46.1755 198.634 45.793C199.123 45.4023 199.704 45.0972 200.38 44.8774C201.063 44.6577 201.828 44.5479 202.675 44.5479C203.676 44.5479 204.567 44.7188 205.348 45.0605C206.138 45.3942 206.756 45.8988 207.204 46.5742C207.659 47.2497 207.887 48.1001 207.887 49.1255V54.8872C207.887 55.5464 207.928 56.112 208.009 56.584C208.099 57.0479 208.229 57.4507 208.4 57.7925V58H205.116C204.962 57.6663 204.844 57.2432 204.762 56.7305C204.681 56.2096 204.64 55.6969 204.64 55.1924ZM205.092 49.9556L205.116 51.8721H203.078C202.573 51.8721 202.13 51.925 201.747 52.0308C201.365 52.1284 201.051 52.2749 200.807 52.4702C200.563 52.6574 200.38 52.8853 200.258 53.1538C200.136 53.4142 200.075 53.7113 200.075 54.0449C200.075 54.3704 200.148 54.6634 200.294 54.9238C200.449 55.1842 200.669 55.3918 200.954 55.5464C201.247 55.6929 201.588 55.7661 201.979 55.7661C202.549 55.7661 203.045 55.6522 203.468 55.4243C203.891 55.1883 204.221 54.9035 204.457 54.5698C204.693 54.2362 204.819 53.9188 204.835 53.6177L205.763 55.0093C205.649 55.3429 205.478 55.6969 205.25 56.0713C205.023 56.4456 204.73 56.7956 204.372 57.1211C204.014 57.4466 203.582 57.7152 203.078 57.9268C202.573 58.1383 201.987 58.2441 201.32 58.2441C200.465 58.2441 199.7 58.0732 199.025 57.7314C198.349 57.3896 197.816 56.9217 197.426 56.3276C197.035 55.7336 196.84 55.0581 196.84 54.3013C196.84 53.6014 196.97 52.9829 197.23 52.4458C197.491 51.9087 197.877 51.457 198.39 51.0908C198.903 50.7165 199.538 50.4357 200.294 50.2485C201.059 50.0532 201.934 49.9556 202.919 49.9556H205.092ZM214.21 39.25V58H210.976V39.25H214.21ZM220.705 44.792V58H217.47V44.792H220.705ZM217.25 41.3374C217.25 40.8573 217.413 40.4585 217.738 40.1411C218.072 39.8237 218.52 39.665 219.081 39.665C219.643 39.665 220.086 39.8237 220.412 40.1411C220.745 40.4585 220.912 40.8573 220.912 41.3374C220.912 41.8094 220.745 42.2041 220.412 42.5215C220.086 42.8389 219.643 42.9976 219.081 42.9976C218.52 42.9976 218.072 42.8389 217.738 42.5215C217.413 42.2041 217.25 41.8094 217.25 41.3374ZM230.031 44.792V47.1113H222.462V44.792H230.031ZM224.489 41.5449H227.724V54.1914C227.724 54.582 227.777 54.8831 227.882 55.0947C227.988 55.3063 228.147 55.4487 228.358 55.522C228.57 55.5952 228.822 55.6318 229.115 55.6318C229.327 55.6318 229.522 55.6196 229.701 55.5952C229.88 55.5708 230.031 55.5464 230.153 55.522L230.165 57.939C229.896 58.0285 229.591 58.1017 229.25 58.1587C228.916 58.2157 228.537 58.2441 228.114 58.2441C227.39 58.2441 226.755 58.1221 226.21 57.8779C225.665 57.6257 225.242 57.2228 224.94 56.6694C224.639 56.1079 224.489 55.3674 224.489 54.4478V41.5449ZM236.049 56.5352L239.589 44.792H243.043L237.746 60.002C237.624 60.3275 237.465 60.6815 237.27 61.064C237.082 61.4465 236.83 61.8086 236.513 62.1504C236.195 62.5003 235.797 62.7852 235.316 63.0049C234.844 63.2246 234.271 63.3345 233.595 63.3345C233.302 63.3345 233.042 63.3141 232.814 63.2734C232.586 63.2327 232.346 63.1799 232.094 63.1147V60.6978C232.175 60.7059 232.269 60.71 232.375 60.71C232.488 60.7181 232.586 60.7222 232.667 60.7222C233.139 60.7222 233.53 60.6652 233.839 60.5513C234.149 60.4455 234.397 60.2705 234.584 60.0264C234.779 59.7904 234.942 59.4811 235.072 59.0986L236.049 56.5352ZM234.303 44.792L237.294 54.521L237.819 57.9268L235.597 58.3296L230.824 44.792H234.303ZM258.095 54.3867C258.095 54.11 258.021 53.8618 257.875 53.6421C257.729 53.4224 257.452 53.223 257.045 53.0439C256.646 52.8568 256.06 52.6818 255.287 52.519C254.604 52.3726 253.973 52.1895 253.395 51.9697C252.817 51.75 252.321 51.4855 251.906 51.1763C251.491 50.8589 251.165 50.4886 250.929 50.0654C250.701 49.6341 250.587 49.1377 250.587 48.5762C250.587 48.0309 250.705 47.5182 250.941 47.0381C251.177 46.5498 251.519 46.1226 251.967 45.7563C252.414 45.382 252.96 45.089 253.603 44.8774C254.245 44.6577 254.97 44.5479 255.775 44.5479C256.898 44.5479 257.863 44.731 258.668 45.0972C259.482 45.4634 260.105 45.9679 260.536 46.6108C260.967 47.2456 261.183 47.9618 261.183 48.7593H257.96C257.96 48.4093 257.879 48.092 257.716 47.8071C257.562 47.5223 257.322 47.2944 256.996 47.1235C256.671 46.9445 256.26 46.855 255.763 46.855C255.316 46.855 254.937 46.9282 254.628 47.0747C254.327 47.2212 254.099 47.4124 253.944 47.6484C253.79 47.8844 253.712 48.1449 253.712 48.4297C253.712 48.6413 253.753 48.8325 253.834 49.0034C253.924 49.1662 254.066 49.3167 254.262 49.4551C254.457 49.5934 254.722 49.7196 255.055 49.8335C255.397 49.9474 255.816 50.0573 256.312 50.1631C257.297 50.3584 258.156 50.6188 258.888 50.9443C259.629 51.2617 260.207 51.6849 260.622 52.2139C261.037 52.7428 261.244 53.4183 261.244 54.2402C261.244 54.8262 261.118 55.3633 260.866 55.8516C260.613 56.3317 260.247 56.7508 259.767 57.1089C259.287 57.467 258.713 57.7477 258.046 57.9512C257.379 58.1465 256.626 58.2441 255.788 58.2441C254.575 58.2441 253.55 58.0285 252.711 57.5972C251.873 57.1577 251.238 56.6043 250.807 55.937C250.376 55.2616 250.16 54.5617 250.16 53.8374H253.249C253.273 54.3501 253.411 54.7611 253.664 55.0703C253.916 55.3796 254.233 55.6034 254.616 55.7417C255.006 55.8719 255.417 55.937 255.849 55.937C256.337 55.937 256.748 55.8719 257.082 55.7417C257.415 55.6034 257.667 55.4202 257.838 55.1924C258.009 54.9564 258.095 54.6878 258.095 54.3867ZM271.559 54.8628V44.792H274.806V58H271.754L271.559 54.8628ZM271.974 52.1284L272.975 52.104C272.975 52.991 272.877 53.8089 272.682 54.5576C272.487 55.3063 272.182 55.9574 271.767 56.5107C271.36 57.056 270.843 57.4832 270.216 57.7925C269.59 58.0936 268.849 58.2441 267.995 58.2441C267.344 58.2441 266.75 58.1546 266.212 57.9756C265.675 57.7884 265.211 57.4995 264.821 57.1089C264.438 56.7101 264.141 56.2015 263.93 55.583C263.718 54.9564 263.612 54.2036 263.612 53.3247V44.792H266.835V53.3491C266.835 53.7886 266.884 54.1548 266.981 54.4478C267.087 54.7407 267.23 54.9808 267.409 55.168C267.596 55.347 267.812 55.4772 268.056 55.5586C268.308 55.6318 268.576 55.6685 268.861 55.6685C269.643 55.6685 270.257 55.5138 270.705 55.2046C271.16 54.8872 271.486 54.464 271.681 53.9351C271.876 53.3979 271.974 52.7957 271.974 52.1284ZM280.885 47.3311V63.0781H277.65V44.792H280.641L280.885 47.3311ZM289.369 51.2617V51.5181C289.369 52.4784 289.255 53.3695 289.027 54.1914C288.808 55.0052 288.482 55.7173 288.051 56.3276C287.619 56.9299 287.082 57.4019 286.439 57.7437C285.805 58.0773 285.072 58.2441 284.242 58.2441C283.428 58.2441 282.72 58.0895 282.118 57.7803C281.516 57.4629 281.007 57.0153 280.592 56.4375C280.177 55.8597 279.844 55.1883 279.591 54.4233C279.347 53.6502 279.164 52.8079 279.042 51.8965V51.0786C279.164 50.1102 279.347 49.2313 279.591 48.4419C279.844 47.6444 280.177 46.9567 280.592 46.3789C281.007 45.793 281.512 45.3413 282.106 45.0239C282.708 44.7065 283.412 44.5479 284.218 44.5479C285.056 44.5479 285.792 44.7065 286.427 45.0239C287.07 45.3413 287.611 45.797 288.051 46.3911C288.49 46.9852 288.82 47.6932 289.04 48.5151C289.259 49.3371 289.369 50.2526 289.369 51.2617ZM286.134 51.5181V51.2617C286.134 50.6758 286.081 50.1346 285.976 49.6382C285.87 49.1336 285.707 48.6942 285.487 48.3198C285.268 47.9373 284.983 47.6403 284.633 47.4287C284.283 47.2171 283.86 47.1113 283.363 47.1113C282.867 47.1113 282.44 47.1927 282.082 47.3555C281.723 47.5182 281.431 47.7502 281.203 48.0513C280.975 48.3524 280.796 48.7104 280.666 49.1255C280.543 49.5324 280.462 49.984 280.421 50.4805V52.5068C280.495 53.109 280.637 53.6502 280.849 54.1304C281.06 54.6105 281.369 54.993 281.776 55.2778C282.191 55.5627 282.729 55.7051 283.388 55.7051C283.884 55.7051 284.307 55.5952 284.657 55.3755C285.007 55.1558 285.292 54.8547 285.512 54.4722C285.731 54.0815 285.89 53.634 285.988 53.1294C286.085 52.6248 286.134 52.0877 286.134 51.5181ZM294.948 47.3311V63.0781H291.713V44.792H294.704L294.948 47.3311ZM303.432 51.2617V51.5181C303.432 52.4784 303.318 53.3695 303.09 54.1914C302.87 55.0052 302.545 55.7173 302.113 56.3276C301.682 56.9299 301.145 57.4019 300.502 57.7437C299.867 58.0773 299.135 58.2441 298.305 58.2441C297.491 58.2441 296.783 58.0895 296.181 57.7803C295.578 57.4629 295.07 57.0153 294.655 56.4375C294.24 55.8597 293.906 55.1883 293.654 54.4233C293.41 53.6502 293.227 52.8079 293.104 51.8965V51.0786C293.227 50.1102 293.41 49.2313 293.654 48.4419C293.906 47.6444 294.24 46.9567 294.655 46.3789C295.07 45.793 295.574 45.3413 296.168 45.0239C296.771 44.7065 297.475 44.5479 298.28 44.5479C299.118 44.5479 299.855 44.7065 300.49 45.0239C301.133 45.3413 301.674 45.797 302.113 46.3911C302.553 46.9852 302.882 47.6932 303.102 48.5151C303.322 49.3371 303.432 50.2526 303.432 51.2617ZM300.197 51.5181V51.2617C300.197 50.6758 300.144 50.1346 300.038 49.6382C299.932 49.1336 299.77 48.6942 299.55 48.3198C299.33 47.9373 299.045 47.6403 298.695 47.4287C298.345 47.2171 297.922 47.1113 297.426 47.1113C296.929 47.1113 296.502 47.1927 296.144 47.3555C295.786 47.5182 295.493 47.7502 295.265 48.0513C295.037 48.3524 294.858 48.7104 294.728 49.1255C294.606 49.5324 294.525 49.984 294.484 50.4805V52.5068C294.557 53.109 294.7 53.6502 294.911 54.1304C295.123 54.6105 295.432 54.993 295.839 55.2778C296.254 55.5627 296.791 55.7051 297.45 55.7051C297.947 55.7051 298.37 55.5952 298.72 55.3755C299.07 55.1558 299.354 54.8547 299.574 54.4722C299.794 54.0815 299.953 53.634 300.05 53.1294C300.148 52.6248 300.197 52.0877 300.197 51.5181ZM305.214 51.5303V51.2739C305.214 50.3055 305.352 49.4144 305.629 48.6006C305.906 47.7786 306.308 47.0666 306.837 46.4644C307.366 45.8621 308.013 45.3942 308.778 45.0605C309.543 44.7188 310.414 44.5479 311.391 44.5479C312.383 44.5479 313.262 44.7188 314.027 45.0605C314.8 45.3942 315.451 45.8621 315.98 46.4644C316.509 47.0666 316.912 47.7786 317.189 48.6006C317.466 49.4144 317.604 50.3055 317.604 51.2739V51.5303C317.604 52.4906 317.466 53.3817 317.189 54.2036C316.912 55.0174 316.509 55.7295 315.98 56.3398C315.451 56.9421 314.805 57.41 314.04 57.7437C313.275 58.0773 312.4 58.2441 311.415 58.2441C310.438 58.2441 309.564 58.0773 308.791 57.7437C308.017 57.41 307.366 56.9421 306.837 56.3398C306.308 55.7295 305.906 55.0174 305.629 54.2036C305.352 53.3817 305.214 52.4906 305.214 51.5303ZM308.437 51.2739V51.5303C308.437 52.1081 308.493 52.6493 308.607 53.1538C308.721 53.6584 308.896 54.1019 309.132 54.4844C309.368 54.8669 309.674 55.168 310.048 55.3877C310.43 55.5993 310.886 55.7051 311.415 55.7051C311.936 55.7051 312.383 55.5993 312.758 55.3877C313.132 55.168 313.437 54.8669 313.673 54.4844C313.917 54.1019 314.097 53.6584 314.21 53.1538C314.324 52.6493 314.381 52.1081 314.381 51.5303V51.2739C314.381 50.7043 314.324 50.1712 314.21 49.6748C314.097 49.1702 313.917 48.7267 313.673 48.3442C313.437 47.9536 313.128 47.6484 312.746 47.4287C312.371 47.2008 311.92 47.0869 311.391 47.0869C310.87 47.0869 310.422 47.2008 310.048 47.4287C309.674 47.6484 309.368 47.9536 309.132 48.3442C308.896 48.7267 308.721 49.1702 308.607 49.6748C308.493 50.1712 308.437 50.7043 308.437 51.2739ZM323.17 47.4897V58H319.948V44.792H323L323.17 47.4897ZM327.187 44.7065L327.138 47.7095C326.959 47.6769 326.755 47.6525 326.527 47.6362C326.308 47.62 326.1 47.6118 325.905 47.6118C325.408 47.6118 324.973 47.681 324.599 47.8193C324.224 47.9495 323.911 48.1408 323.659 48.3931C323.415 48.6453 323.227 48.9546 323.097 49.3208C322.967 49.6789 322.894 50.0858 322.877 50.5415L322.182 50.4561C322.182 49.6178 322.267 48.8407 322.438 48.1245C322.609 47.4084 322.857 46.7817 323.183 46.2446C323.508 45.7075 323.915 45.2925 324.403 44.9995C324.9 44.6984 325.469 44.5479 326.112 44.5479C326.291 44.5479 326.483 44.5641 326.686 44.5967C326.898 44.6211 327.064 44.6577 327.187 44.7065ZM335.817 44.792V47.1113H328.249V44.792H335.817ZM330.275 41.5449H333.51V54.1914C333.51 54.582 333.563 54.8831 333.668 55.0947C333.774 55.3063 333.933 55.4487 334.145 55.522C334.356 55.5952 334.608 55.6318 334.901 55.6318C335.113 55.6318 335.308 55.6196 335.487 55.5952C335.666 55.5708 335.817 55.5464 335.939 55.522L335.951 57.939C335.683 58.0285 335.377 58.1017 335.036 58.1587C334.702 58.2157 334.324 58.2441 333.9 58.2441C333.176 58.2441 332.541 58.1221 331.996 57.8779C331.451 57.6257 331.028 57.2228 330.727 56.6694C330.425 56.1079 330.275 55.3674 330.275 54.4478V41.5449Z" fill="#274C5B"/>
<rect x="418" width="419" height="99" rx="49.5" fill="#F9F8F8"/>
<circle cx="469.5" cy="49.5" r="34.5" fill="#7EB693"/>
<path d="M468.184 47.5508V50.627C468.184 51.9616 468.041 53.1131 467.756 54.0815C467.472 55.0418 467.061 55.8312 466.523 56.4497C465.994 57.0601 465.364 57.5117 464.631 57.8047C463.899 58.0977 463.085 58.2441 462.19 58.2441C461.474 58.2441 460.806 58.1546 460.188 57.9756C459.569 57.7884 459.012 57.4995 458.516 57.1089C458.027 56.7183 457.604 56.2259 457.246 55.6318C456.896 55.0296 456.628 54.3135 456.44 53.4834C456.253 52.6533 456.16 51.7012 456.16 50.627V47.5508C456.16 46.2161 456.302 45.0728 456.587 44.1206C456.88 43.1603 457.291 42.375 457.82 41.7646C458.357 41.1543 458.992 40.7067 459.724 40.4219C460.457 40.1289 461.27 39.9824 462.166 39.9824C462.882 39.9824 463.545 40.076 464.155 40.2632C464.774 40.4422 465.331 40.723 465.828 41.1055C466.324 41.488 466.747 41.9803 467.097 42.5825C467.447 43.1766 467.716 43.8887 467.903 44.7188C468.09 45.5407 468.184 46.4847 468.184 47.5508ZM464.656 51.0908V47.0747C464.656 46.4318 464.619 45.8703 464.546 45.3901C464.481 44.91 464.379 44.5031 464.241 44.1694C464.102 43.8276 463.931 43.5509 463.728 43.3394C463.525 43.1278 463.293 42.9731 463.032 42.8755C462.772 42.7778 462.483 42.729 462.166 42.729C461.767 42.729 461.413 42.8063 461.104 42.9609C460.802 43.1156 460.546 43.3638 460.334 43.7056C460.123 44.0392 459.96 44.4868 459.846 45.0483C459.74 45.6017 459.688 46.2772 459.688 47.0747V51.0908C459.688 51.7337 459.72 52.2993 459.785 52.7876C459.858 53.2759 459.964 53.695 460.103 54.0449C460.249 54.3867 460.42 54.6675 460.615 54.8872C460.819 55.0988 461.051 55.2534 461.311 55.3511C461.58 55.4487 461.873 55.4976 462.19 55.4976C462.581 55.4976 462.926 55.4202 463.228 55.2656C463.537 55.1029 463.797 54.8506 464.009 54.5088C464.229 54.1589 464.391 53.7031 464.497 53.1416C464.603 52.5801 464.656 51.8965 464.656 51.0908ZM482.734 55.2534V58H470.576V55.6562L476.326 49.4917C476.903 48.8488 477.359 48.2832 477.693 47.7949C478.027 47.2985 478.267 46.855 478.413 46.4644C478.568 46.0656 478.645 45.6872 478.645 45.3291C478.645 44.792 478.556 44.3322 478.376 43.9497C478.197 43.5591 477.933 43.258 477.583 43.0464C477.241 42.8348 476.818 42.729 476.313 42.729C475.776 42.729 475.312 42.8592 474.922 43.1196C474.539 43.38 474.246 43.7422 474.043 44.2061C473.848 44.6699 473.75 45.1948 473.75 45.7808H470.222C470.222 44.7228 470.474 43.7544 470.979 42.8755C471.484 41.9884 472.196 41.2845 473.115 40.7637C474.035 40.2347 475.125 39.9702 476.387 39.9702C477.632 39.9702 478.682 40.1737 479.536 40.5806C480.399 40.9793 481.05 41.5571 481.489 42.314C481.937 43.0627 482.161 43.9578 482.161 44.9995C482.161 45.5854 482.067 46.1592 481.88 46.7207C481.693 47.2741 481.424 47.8275 481.074 48.3809C480.732 48.9261 480.317 49.4795 479.829 50.041C479.341 50.6025 478.8 51.1844 478.206 51.7866L475.117 55.2534H482.734Z" fill="white"/>
<path d="M532.162 40.2266H535.067L539.925 53.6055L544.771 40.2266H547.689L541.085 58H538.753L532.162 40.2266ZM530.697 40.2266H533.541L534.054 52.519V58H530.697V40.2266ZM546.297 40.2266H549.154V58H545.797V52.519L546.297 40.2266ZM551.754 51.5303V51.2739C551.754 50.3055 551.892 49.4144 552.169 48.6006C552.446 47.7786 552.848 47.0666 553.377 46.4644C553.906 45.8621 554.553 45.3942 555.318 45.0605C556.083 44.7188 556.954 44.5479 557.931 44.5479C558.924 44.5479 559.802 44.7188 560.567 45.0605C561.34 45.3942 561.992 45.8621 562.521 46.4644C563.049 47.0666 563.452 47.7786 563.729 48.6006C564.006 49.4144 564.144 50.3055 564.144 51.2739V51.5303C564.144 52.4906 564.006 53.3817 563.729 54.2036C563.452 55.0174 563.049 55.7295 562.521 56.3398C561.992 56.9421 561.345 57.41 560.58 57.7437C559.815 58.0773 558.94 58.2441 557.955 58.2441C556.979 58.2441 556.104 58.0773 555.331 57.7437C554.557 57.41 553.906 56.9421 553.377 56.3398C552.848 55.7295 552.446 55.0174 552.169 54.2036C551.892 53.3817 551.754 52.4906 551.754 51.5303ZM554.977 51.2739V51.5303C554.977 52.1081 555.034 52.6493 555.147 53.1538C555.261 53.6584 555.436 54.1019 555.672 54.4844C555.908 54.8669 556.214 55.168 556.588 55.3877C556.97 55.5993 557.426 55.7051 557.955 55.7051C558.476 55.7051 558.924 55.5993 559.298 55.3877C559.672 55.168 559.977 54.8669 560.213 54.4844C560.458 54.1019 560.637 53.6584 560.75 53.1538C560.864 52.6493 560.921 52.1081 560.921 51.5303V51.2739C560.921 50.7043 560.864 50.1712 560.75 49.6748C560.637 49.1702 560.458 48.7267 560.213 48.3442C559.977 47.9536 559.668 47.6484 559.286 47.4287C558.911 47.2008 558.46 47.0869 557.931 47.0869C557.41 47.0869 556.962 47.2008 556.588 47.4287C556.214 47.6484 555.908 47.9536 555.672 48.3442C555.436 48.7267 555.261 49.1702 555.147 49.6748C555.034 50.1712 554.977 50.7043 554.977 51.2739ZM569.649 47.6118V58H566.427V44.792H569.454L569.649 47.6118ZM569.137 50.9199H568.185C568.193 49.9596 568.323 49.0889 568.575 48.3076C568.827 47.5264 569.181 46.855 569.637 46.2935C570.101 45.7319 570.65 45.3006 571.285 44.9995C571.92 44.6984 572.628 44.5479 573.409 44.5479C574.044 44.5479 574.618 44.6374 575.13 44.8164C575.643 44.9954 576.083 45.2803 576.449 45.6709C576.823 46.0615 577.108 46.5742 577.303 47.209C577.507 47.8356 577.608 48.6087 577.608 49.5283V58H574.361V49.5039C574.361 48.9017 574.272 48.4256 574.093 48.0757C573.922 47.7257 573.67 47.4775 573.336 47.3311C573.01 47.1846 572.608 47.1113 572.127 47.1113C571.631 47.1113 571.196 47.2131 570.821 47.4165C570.455 47.6118 570.146 47.8844 569.894 48.2344C569.649 48.5843 569.462 48.9871 569.332 49.4429C569.202 49.8986 569.137 50.391 569.137 50.9199ZM586.385 58.2441C585.384 58.2441 584.485 58.0814 583.688 57.7559C582.89 57.4303 582.21 56.9787 581.649 56.4009C581.096 55.8149 580.668 55.1354 580.367 54.3623C580.074 53.5811 579.928 52.7428 579.928 51.8477V51.3594C579.928 50.3421 580.074 49.4185 580.367 48.5884C580.66 47.7502 581.075 47.0299 581.612 46.4277C582.149 45.8255 582.792 45.3617 583.541 45.0361C584.29 44.7106 585.116 44.5479 586.019 44.5479C586.955 44.5479 587.781 44.7065 588.497 45.0239C589.213 45.3332 589.811 45.7726 590.292 46.3423C590.772 46.9119 591.134 47.5955 591.378 48.3931C591.622 49.1825 591.744 50.0573 591.744 51.0176V52.3726H581.393V50.1509H588.57V49.9067C588.554 49.394 588.456 48.9261 588.277 48.5029C588.098 48.0716 587.822 47.7298 587.447 47.4775C587.073 47.2171 586.589 47.0869 585.995 47.0869C585.514 47.0869 585.095 47.1927 584.737 47.4043C584.387 47.6077 584.094 47.9007 583.858 48.2832C583.631 48.6576 583.46 49.1051 583.346 49.626C583.232 50.1468 583.175 50.7246 583.175 51.3594V51.8477C583.175 52.401 583.248 52.9137 583.395 53.3857C583.549 53.8577 583.773 54.2687 584.066 54.6187C584.367 54.9604 584.725 55.229 585.14 55.4243C585.563 55.6115 586.043 55.7051 586.581 55.7051C587.256 55.7051 587.866 55.5749 588.412 55.3145C588.965 55.0459 589.445 54.6512 589.852 54.1304L591.476 55.8149C591.199 56.2218 590.825 56.6125 590.353 56.9868C589.889 57.3612 589.327 57.6663 588.668 57.9023C588.009 58.1302 587.248 58.2441 586.385 58.2441ZM597.604 56.5352L601.144 44.792H604.598L599.3 60.002C599.178 60.3275 599.02 60.6815 598.824 61.064C598.637 61.4465 598.385 61.8086 598.067 62.1504C597.75 62.5003 597.351 62.7852 596.871 63.0049C596.399 63.2246 595.825 63.3345 595.15 63.3345C594.857 63.3345 594.597 63.3141 594.369 63.2734C594.141 63.2327 593.901 63.1799 593.648 63.1147V60.6978C593.73 60.7059 593.823 60.71 593.929 60.71C594.043 60.7181 594.141 60.7222 594.222 60.7222C594.694 60.7222 595.085 60.6652 595.394 60.5513C595.703 60.4455 595.951 60.2705 596.139 60.0264C596.334 59.7904 596.497 59.4811 596.627 59.0986L597.604 56.5352ZM595.858 44.792L598.849 54.521L599.374 57.9268L597.152 58.3296L592.379 44.792H595.858ZM612.374 39.25H615.609V55.0825L615.292 58H612.374V39.25ZM624.105 51.2617V51.5181C624.105 52.5028 623.995 53.4061 623.775 54.228C623.564 55.05 623.242 55.762 622.811 56.3643C622.38 56.9583 621.843 57.4222 621.2 57.7559C620.565 58.0814 619.82 58.2441 618.966 58.2441C618.152 58.2441 617.444 58.0854 616.842 57.7681C616.248 57.4507 615.747 57.0031 615.34 56.4253C614.933 55.8394 614.608 55.1517 614.364 54.3623C614.12 53.5648 613.937 52.694 613.814 51.75V51.0542C613.937 50.1021 614.12 49.2313 614.364 48.4419C614.608 47.6525 614.933 46.9648 615.34 46.3789C615.747 45.793 616.248 45.3413 616.842 45.0239C617.436 44.7065 618.136 44.5479 618.941 44.5479C619.804 44.5479 620.557 44.7147 621.2 45.0483C621.851 45.3739 622.388 45.8377 622.811 46.4399C623.242 47.034 623.564 47.742 623.775 48.564C623.995 49.3778 624.105 50.277 624.105 51.2617ZM620.87 51.5181V51.2617C620.87 50.7002 620.825 50.1712 620.736 49.6748C620.646 49.1702 620.5 48.7267 620.296 48.3442C620.093 47.9618 619.816 47.6606 619.466 47.4409C619.116 47.2212 618.677 47.1113 618.148 47.1113C617.643 47.1113 617.212 47.1968 616.854 47.3677C616.504 47.5386 616.211 47.7746 615.975 48.0757C615.747 48.3768 615.568 48.7308 615.438 49.1377C615.316 49.5446 615.235 49.984 615.194 50.4561V52.3604C615.251 52.987 615.385 53.5526 615.597 54.0571C615.808 54.5535 616.122 54.9482 616.537 55.2412C616.96 55.5342 617.505 55.6807 618.172 55.6807C618.693 55.6807 619.129 55.5789 619.479 55.3755C619.828 55.1639 620.105 54.8709 620.309 54.4966C620.512 54.1141 620.654 53.6706 620.736 53.166C620.825 52.6615 620.87 52.1121 620.87 51.5181ZM633.724 55.1924V49.1011C633.724 48.6535 633.647 48.2669 633.492 47.9414C633.338 47.6159 633.102 47.3636 632.784 47.1846C632.467 47.0055 632.064 46.916 631.576 46.916C631.144 46.916 630.766 46.9893 630.44 47.1357C630.123 47.2822 629.879 47.4897 629.708 47.7583C629.537 48.0187 629.452 48.3198 629.452 48.6616H626.217C626.217 48.1164 626.347 47.5996 626.607 47.1113C626.868 46.6149 627.238 46.1755 627.718 45.793C628.207 45.4023 628.788 45.0972 629.464 44.8774C630.147 44.6577 630.912 44.5479 631.759 44.5479C632.76 44.5479 633.651 44.7188 634.432 45.0605C635.222 45.3942 635.84 45.8988 636.288 46.5742C636.743 47.2497 636.971 48.1001 636.971 49.1255V54.8872C636.971 55.5464 637.012 56.112 637.093 56.584C637.183 57.0479 637.313 57.4507 637.484 57.7925V58H634.2C634.046 57.6663 633.928 57.2432 633.846 56.7305C633.765 56.2096 633.724 55.6969 633.724 55.1924ZM634.176 49.9556L634.2 51.8721H632.162C631.657 51.8721 631.214 51.925 630.831 52.0308C630.449 52.1284 630.135 52.2749 629.891 52.4702C629.647 52.6574 629.464 52.8853 629.342 53.1538C629.22 53.4142 629.159 53.7113 629.159 54.0449C629.159 54.3704 629.232 54.6634 629.378 54.9238C629.533 55.1842 629.753 55.3918 630.038 55.5464C630.331 55.6929 630.672 55.7661 631.063 55.7661C631.633 55.7661 632.129 55.6522 632.552 55.4243C632.975 55.1883 633.305 54.9035 633.541 54.5698C633.777 54.2362 633.903 53.9188 633.919 53.6177L634.847 55.0093C634.733 55.3429 634.562 55.6969 634.334 56.0713C634.107 56.4456 633.814 56.7956 633.456 57.1211C633.097 57.4466 632.666 57.7152 632.162 57.9268C631.657 58.1383 631.071 58.2441 630.404 58.2441C629.549 58.2441 628.784 58.0732 628.109 57.7314C627.433 57.3896 626.9 56.9217 626.51 56.3276C626.119 55.7336 625.924 55.0581 625.924 54.3013C625.924 53.6014 626.054 52.9829 626.314 52.4458C626.575 51.9087 626.961 51.457 627.474 51.0908C627.987 50.7165 628.622 50.4357 629.378 50.2485C630.143 50.0532 631.018 49.9556 632.003 49.9556H634.176ZM645.296 55.7051C645.752 55.7051 646.159 55.6156 646.517 55.4365C646.875 55.2575 647.16 55.0052 647.372 54.6797C647.591 54.3542 647.709 53.9757 647.726 53.5444H650.765C650.749 54.4396 650.497 55.2412 650.008 55.9492C649.52 56.6572 648.869 57.2188 648.055 57.6338C647.25 58.0407 646.346 58.2441 645.345 58.2441C644.328 58.2441 643.441 58.0732 642.684 57.7314C641.927 57.3896 641.297 56.9136 640.792 56.3032C640.296 55.6929 639.921 54.9849 639.669 54.1792C639.425 53.3735 639.303 52.5109 639.303 51.5913V51.2007C639.303 50.2811 639.425 49.4185 639.669 48.6128C639.921 47.8071 640.296 47.0991 640.792 46.4888C641.297 45.8784 641.927 45.4023 642.684 45.0605C643.441 44.7188 644.324 44.5479 645.333 44.5479C646.399 44.5479 647.335 44.7554 648.141 45.1704C648.954 45.5854 649.589 46.1714 650.045 46.9282C650.509 47.6851 650.749 48.5762 650.765 49.6016H647.726C647.709 49.1296 647.604 48.7064 647.408 48.332C647.213 47.9577 646.936 47.6566 646.578 47.4287C646.22 47.2008 645.785 47.0869 645.272 47.0869C644.727 47.0869 644.271 47.2008 643.905 47.4287C643.547 47.6566 643.266 47.9699 643.062 48.3687C642.867 48.7593 642.729 49.1987 642.647 49.687C642.574 50.1672 642.538 50.6717 642.538 51.2007V51.5913C642.538 52.1284 642.574 52.6411 642.647 53.1294C642.729 53.6177 642.867 54.0571 643.062 54.4478C643.266 54.8302 643.547 55.1354 643.905 55.3633C644.271 55.5911 644.735 55.7051 645.296 55.7051ZM656.136 39.2378V58H652.914V39.2378H656.136ZM664.413 44.792L658.663 51.2495L655.55 54.4111L654.525 51.9087L656.93 48.8813L660.519 44.792H664.413ZM661.117 58L657.027 51.8477L659.176 49.7603L664.852 58H661.117ZM680.746 44.792H683.675V57.5972C683.675 58.7935 683.415 59.8066 682.894 60.6367C682.381 61.4749 681.661 62.1097 680.733 62.541C679.806 62.9805 678.727 63.2002 677.499 63.2002C676.97 63.2002 676.396 63.127 675.777 62.9805C675.167 62.834 674.577 62.6021 674.007 62.2847C673.446 61.9754 672.978 61.5726 672.604 61.0762L674.056 59.1719C674.496 59.6846 674.992 60.0711 675.545 60.3315C676.099 60.6001 676.697 60.7344 677.34 60.7344C677.991 60.7344 678.544 60.6123 679 60.3682C679.464 60.1322 679.818 59.7822 680.062 59.3184C680.314 58.8626 680.44 58.3011 680.44 57.6338V47.8071L680.746 44.792ZM671.822 51.5547V51.2983C671.822 50.2892 671.944 49.3737 672.188 48.5518C672.433 47.7217 672.783 47.0096 673.238 46.4155C673.702 45.8215 674.26 45.3617 674.911 45.0361C675.57 44.7106 676.31 44.5479 677.132 44.5479C678.003 44.5479 678.736 44.7065 679.33 45.0239C679.932 45.3413 680.428 45.793 680.819 46.3789C681.218 46.9648 681.527 47.6606 681.747 48.4663C681.974 49.2638 682.149 50.1427 682.271 51.103V51.7988C682.158 52.7347 681.974 53.5933 681.722 54.3745C681.478 55.1558 681.153 55.8394 680.746 56.4253C680.339 57.0031 679.834 57.4507 679.232 57.7681C678.63 58.0854 677.922 58.2441 677.108 58.2441C676.294 58.2441 675.562 58.0773 674.911 57.7437C674.26 57.41 673.702 56.9421 673.238 56.3398C672.783 55.7376 672.433 55.0296 672.188 54.2158C671.944 53.402 671.822 52.515 671.822 51.5547ZM675.045 51.2983V51.5547C675.045 52.1243 675.102 52.6574 675.216 53.1538C675.33 53.6502 675.505 54.0897 675.741 54.4722C675.977 54.8465 676.274 55.1395 676.632 55.3511C676.99 55.5627 677.417 55.6685 677.914 55.6685C678.581 55.6685 679.126 55.5301 679.549 55.2534C679.981 54.9686 680.306 54.582 680.526 54.0938C680.754 53.5973 680.9 53.0399 680.965 52.4214V50.5049C680.925 50.0166 680.835 49.5649 680.697 49.1499C680.567 48.7349 680.383 48.3768 680.147 48.0757C679.911 47.7746 679.61 47.5386 679.244 47.3677C678.878 47.1968 678.443 47.1113 677.938 47.1113C677.45 47.1113 677.022 47.2212 676.656 47.4409C676.29 47.6525 675.989 47.9495 675.753 48.332C675.517 48.7145 675.338 49.158 675.216 49.6626C675.102 50.1672 675.045 50.7124 675.045 51.2983ZM694.442 54.8628V44.792H697.689V58H694.637L694.442 54.8628ZM694.857 52.1284L695.858 52.104C695.858 52.991 695.76 53.8089 695.565 54.5576C695.37 55.3063 695.064 55.9574 694.649 56.5107C694.243 57.056 693.726 57.4832 693.099 57.7925C692.472 58.0936 691.732 58.2441 690.877 58.2441C690.226 58.2441 689.632 58.1546 689.095 57.9756C688.558 57.7884 688.094 57.4995 687.704 57.1089C687.321 56.7101 687.024 56.2015 686.812 55.583C686.601 54.9564 686.495 54.2036 686.495 53.3247V44.792H689.718V53.3491C689.718 53.7886 689.767 54.1548 689.864 54.4478C689.97 54.7407 690.112 54.9808 690.292 55.168C690.479 55.347 690.694 55.4772 690.938 55.5586C691.191 55.6318 691.459 55.6685 691.744 55.6685C692.525 55.6685 693.14 55.5138 693.587 55.2046C694.043 54.8872 694.369 54.464 694.564 53.9351C694.759 53.3979 694.857 52.7957 694.857 52.1284ZM707.821 55.1924V49.1011C707.821 48.6535 707.743 48.2669 707.589 47.9414C707.434 47.6159 707.198 47.3636 706.881 47.1846C706.563 47.0055 706.161 46.916 705.672 46.916C705.241 46.916 704.863 46.9893 704.537 47.1357C704.22 47.2822 703.976 47.4897 703.805 47.7583C703.634 48.0187 703.548 48.3198 703.548 48.6616H700.313C700.313 48.1164 700.444 47.5996 700.704 47.1113C700.965 46.6149 701.335 46.1755 701.815 45.793C702.303 45.4023 702.885 45.0972 703.561 44.8774C704.244 44.6577 705.009 44.5479 705.855 44.5479C706.856 44.5479 707.748 44.7188 708.529 45.0605C709.318 45.3942 709.937 45.8988 710.384 46.5742C710.84 47.2497 711.068 48.1001 711.068 49.1255V54.8872C711.068 55.5464 711.109 56.112 711.19 56.584C711.279 57.0479 711.41 57.4507 711.581 57.7925V58H708.297C708.142 57.6663 708.024 57.2432 707.943 56.7305C707.861 56.2096 707.821 55.6969 707.821 55.1924ZM708.272 49.9556L708.297 51.8721H706.258C705.754 51.8721 705.31 51.925 704.928 52.0308C704.545 52.1284 704.232 52.2749 703.988 52.4702C703.744 52.6574 703.561 52.8853 703.438 53.1538C703.316 53.4142 703.255 53.7113 703.255 54.0449C703.255 54.3704 703.329 54.6634 703.475 54.9238C703.63 55.1842 703.849 55.3918 704.134 55.5464C704.427 55.6929 704.769 55.7661 705.16 55.7661C705.729 55.7661 706.226 55.6522 706.649 55.4243C707.072 55.1883 707.402 54.9035 707.638 54.5698C707.874 54.2362 708 53.9188 708.016 53.6177L708.944 55.0093C708.83 55.3429 708.659 55.6969 708.431 56.0713C708.203 56.4456 707.91 56.7956 707.552 57.1211C707.194 57.4466 706.763 57.7152 706.258 57.9268C705.754 58.1383 705.168 58.2441 704.5 58.2441C703.646 58.2441 702.881 58.0732 702.206 57.7314C701.53 57.3896 700.997 56.9217 700.606 56.3276C700.216 55.7336 700.021 55.0581 700.021 54.3013C700.021 53.6014 700.151 52.9829 700.411 52.4458C700.672 51.9087 701.058 51.457 701.571 51.0908C702.083 50.7165 702.718 50.4357 703.475 50.2485C704.24 50.0532 705.115 49.9556 706.1 49.9556H708.272ZM717.196 47.4897V58H713.973V44.792H717.025L717.196 47.4897ZM721.212 44.7065L721.163 47.7095C720.984 47.6769 720.781 47.6525 720.553 47.6362C720.333 47.62 720.125 47.6118 719.93 47.6118C719.434 47.6118 718.998 47.681 718.624 47.8193C718.25 47.9495 717.936 48.1408 717.684 48.3931C717.44 48.6453 717.253 48.9546 717.123 49.3208C716.992 49.6789 716.919 50.0858 716.903 50.5415L716.207 50.4561C716.207 49.6178 716.292 48.8407 716.463 48.1245C716.634 47.4084 716.882 46.7817 717.208 46.2446C717.534 45.7075 717.94 45.2925 718.429 44.9995C718.925 44.6984 719.495 44.5479 720.138 44.5479C720.317 44.5479 720.508 44.5641 720.711 44.5967C720.923 44.6211 721.09 44.6577 721.212 44.7065ZM729.842 55.1924V49.1011C729.842 48.6535 729.765 48.2669 729.61 47.9414C729.456 47.6159 729.22 47.3636 728.902 47.1846C728.585 47.0055 728.182 46.916 727.694 46.916C727.263 46.916 726.884 46.9893 726.559 47.1357C726.241 47.2822 725.997 47.4897 725.826 47.7583C725.655 48.0187 725.57 48.3198 725.57 48.6616H722.335C722.335 48.1164 722.465 47.5996 722.726 47.1113C722.986 46.6149 723.356 46.1755 723.836 45.793C724.325 45.4023 724.907 45.0972 725.582 44.8774C726.266 44.6577 727.031 44.5479 727.877 44.5479C728.878 44.5479 729.769 44.7188 730.55 45.0605C731.34 45.3942 731.958 45.8988 732.406 46.5742C732.861 47.2497 733.089 48.1001 733.089 49.1255V54.8872C733.089 55.5464 733.13 56.112 733.211 56.584C733.301 57.0479 733.431 57.4507 733.602 57.7925V58H730.318C730.164 57.6663 730.046 57.2432 729.964 56.7305C729.883 56.2096 729.842 55.6969 729.842 55.1924ZM730.294 49.9556L730.318 51.8721H728.28C727.775 51.8721 727.332 51.925 726.949 52.0308C726.567 52.1284 726.253 52.2749 726.009 52.4702C725.765 52.6574 725.582 52.8853 725.46 53.1538C725.338 53.4142 725.277 53.7113 725.277 54.0449C725.277 54.3704 725.35 54.6634 725.497 54.9238C725.651 55.1842 725.871 55.3918 726.156 55.5464C726.449 55.6929 726.791 55.7661 727.181 55.7661C727.751 55.7661 728.247 55.6522 728.67 55.4243C729.094 55.1883 729.423 54.9035 729.659 54.5698C729.895 54.2362 730.021 53.9188 730.038 53.6177L730.965 55.0093C730.851 55.3429 730.681 55.6969 730.453 56.0713C730.225 56.4456 729.932 56.7956 729.574 57.1211C729.216 57.4466 728.784 57.7152 728.28 57.9268C727.775 58.1383 727.189 58.2441 726.522 58.2441C725.667 58.2441 724.903 58.0732 724.227 57.7314C723.552 57.3896 723.019 56.9217 722.628 56.3276C722.237 55.7336 722.042 55.0581 722.042 54.3013C722.042 53.6014 722.172 52.9829 722.433 52.4458C722.693 51.9087 723.08 51.457 723.592 51.0908C724.105 50.7165 724.74 50.4357 725.497 50.2485C726.262 50.0532 727.136 49.9556 728.121 49.9556H730.294ZM739.156 47.6118V58H735.934V44.792H738.961L739.156 47.6118ZM738.644 50.9199H737.691C737.7 49.9596 737.83 49.0889 738.082 48.3076C738.334 47.5264 738.688 46.855 739.144 46.2935C739.608 45.7319 740.157 45.3006 740.792 44.9995C741.427 44.6984 742.135 44.5479 742.916 44.5479C743.551 44.5479 744.125 44.6374 744.637 44.8164C745.15 44.9954 745.589 45.2803 745.956 45.6709C746.33 46.0615 746.615 46.5742 746.81 47.209C747.014 47.8356 747.115 48.6087 747.115 49.5283V58H743.868V49.5039C743.868 48.9017 743.779 48.4256 743.6 48.0757C743.429 47.7257 743.176 47.4775 742.843 47.3311C742.517 47.1846 742.114 47.1113 741.634 47.1113C741.138 47.1113 740.702 47.2131 740.328 47.4165C739.962 47.6118 739.653 47.8844 739.4 48.2344C739.156 48.5843 738.969 48.9871 738.839 49.4429C738.709 49.8986 738.644 50.391 738.644 50.9199ZM756.209 44.792V47.1113H748.641V44.792H756.209ZM750.667 41.5449H753.902V54.1914C753.902 54.582 753.955 54.8831 754.061 55.0947C754.167 55.3063 754.326 55.4487 754.537 55.522C754.749 55.5952 755.001 55.6318 755.294 55.6318C755.506 55.6318 755.701 55.6196 755.88 55.5952C756.059 55.5708 756.209 55.5464 756.332 55.522L756.344 57.939C756.075 58.0285 755.77 58.1017 755.428 58.1587C755.095 58.2157 754.716 58.2441 754.293 58.2441C753.569 58.2441 752.934 58.1221 752.389 57.8779C751.843 57.6257 751.42 57.2228 751.119 56.6694C750.818 56.1079 750.667 55.3674 750.667 54.4478V41.5449ZM764.291 58.2441C763.29 58.2441 762.39 58.0814 761.593 57.7559C760.795 57.4303 760.116 56.9787 759.554 56.4009C759.001 55.8149 758.574 55.1354 758.272 54.3623C757.979 53.5811 757.833 52.7428 757.833 51.8477V51.3594C757.833 50.3421 757.979 49.4185 758.272 48.5884C758.565 47.7502 758.98 47.0299 759.518 46.4277C760.055 45.8255 760.698 45.3617 761.446 45.0361C762.195 44.7106 763.021 44.5479 763.924 44.5479C764.86 44.5479 765.686 44.7065 766.402 45.0239C767.118 45.3332 767.717 45.7726 768.197 46.3423C768.677 46.9119 769.039 47.5955 769.283 48.3931C769.527 49.1825 769.649 50.0573 769.649 51.0176V52.3726H759.298V50.1509H766.476V49.9067C766.459 49.394 766.362 48.9261 766.183 48.5029C766.004 48.0716 765.727 47.7298 765.353 47.4775C764.978 47.2171 764.494 47.0869 763.9 47.0869C763.42 47.0869 763.001 47.1927 762.643 47.4043C762.293 47.6077 762 47.9007 761.764 48.2832C761.536 48.6576 761.365 49.1051 761.251 49.626C761.137 50.1468 761.08 50.7246 761.08 51.3594V51.8477C761.08 52.401 761.153 52.9137 761.3 53.3857C761.454 53.8577 761.678 54.2687 761.971 54.6187C762.272 54.9604 762.63 55.229 763.045 55.4243C763.469 55.6115 763.949 55.7051 764.486 55.7051C765.161 55.7051 765.772 55.5749 766.317 55.3145C766.87 55.0459 767.35 54.6512 767.757 54.1304L769.381 55.8149C769.104 56.2218 768.73 56.6125 768.258 56.9868C767.794 57.3612 767.232 57.6663 766.573 57.9023C765.914 58.1302 765.153 58.2441 764.291 58.2441ZM777.743 58.2441C776.742 58.2441 775.842 58.0814 775.045 57.7559C774.247 57.4303 773.568 56.9787 773.006 56.4009C772.453 55.8149 772.026 55.1354 771.725 54.3623C771.432 53.5811 771.285 52.7428 771.285 51.8477V51.3594C771.285 50.3421 771.432 49.4185 771.725 48.5884C772.018 47.7502 772.433 47.0299 772.97 46.4277C773.507 45.8255 774.15 45.3617 774.898 45.0361C775.647 44.7106 776.473 44.5479 777.376 44.5479C778.312 44.5479 779.138 44.7065 779.854 45.0239C780.571 45.3332 781.169 45.7726 781.649 46.3423C782.129 46.9119 782.491 47.5955 782.735 48.3931C782.979 49.1825 783.102 50.0573 783.102 51.0176V52.3726H772.75V50.1509H779.928V49.9067C779.911 49.394 779.814 48.9261 779.635 48.5029C779.456 48.0716 779.179 47.7298 778.805 47.4775C778.43 47.2171 777.946 47.0869 777.352 47.0869C776.872 47.0869 776.453 47.1927 776.095 47.4043C775.745 47.6077 775.452 47.9007 775.216 48.2832C774.988 48.6576 774.817 49.1051 774.703 49.626C774.589 50.1468 774.532 50.7246 774.532 51.3594V51.8477C774.532 52.401 774.605 52.9137 774.752 53.3857C774.907 53.8577 775.13 54.2687 775.423 54.6187C775.724 54.9604 776.083 55.229 776.498 55.4243C776.921 55.6115 777.401 55.7051 777.938 55.7051C778.613 55.7051 779.224 55.5749 779.769 55.3145C780.322 55.0459 780.803 54.6512 781.209 54.1304L782.833 55.8149C782.556 56.2218 782.182 56.6125 781.71 56.9868C781.246 57.3612 780.685 57.6663 780.025 57.9023C779.366 58.1302 778.605 58.2441 777.743 58.2441Z" fill="#274C5B"/>
</svg>
